<svg xmlns="http://www.w3.org/2000/svg" width="900" height="420" viewBox="0 0 900 420">
<rect x="0" y="0" width="100%" height="100%" fill="#ffffff"/>
<text x="70" y="34" font-family="ui-sans-serif, system-ui" font-size="20" fill="#111827">Round 7 Phase 2: Full-Stack Injection Rate by Model</text>
<line x1="70" y1="60" x2="70" y2="310" stroke="#111827" stroke-width="1"/>
<line x1="70" y1="310" x2="870" y2="310" stroke="#111827" stroke-width="1"/>
<line x1="70" y1="310" x2="870" y2="310" stroke="#e5e7eb" stroke-width="1"/>
<text x="60" y="314" text-anchor="end" font-family="ui-sans-serif, system-ui" font-size="12" fill="#6b7280">0.0%</text>
<line x1="70" y1="185" x2="870" y2="185" stroke="#e5e7eb" stroke-width="1"/>
<text x="60" y="189" text-anchor="end" font-family="ui-sans-serif, system-ui" font-size="12" fill="#6b7280">2.5%</text>
<line x1="70" y1="60" x2="870" y2="60" stroke="#e5e7eb" stroke-width="1"/>
<text x="60" y="64" text-anchor="end" font-family="ui-sans-serif, system-ui" font-size="12" fill="#6b7280">5.0%</text>
<rect x="70" y="310" width="102" height="0" rx="6" fill="#2563eb"/>
<text x="121.0" y="302" text-anchor="middle" font-family="ui-sans-serif, system-ui" font-size="12" fill="#111827">0.0%</text>
<text x="121.0" y="328" text-anchor="end" transform="rotate(-35 121.0 328)" font-family="ui-sans-serif, system-ui" font-size="12" fill="#111827">claude-sonnet-4.5</text>
<rect x="186" y="310" width="102" height="0" rx="6" fill="#2563eb"/>
<text x="237.0" y="302" text-anchor="middle" font-family="ui-sans-serif, system-ui" font-size="12" fill="#111827">0.0%</text>
<text x="237.0" y="328" text-anchor="end" transform="rotate(-35 237.0 328)" font-family="ui-sans-serif, system-ui" font-size="12" fill="#111827">gpt-5.2</text>
<rect x="302" y="310" width="102" height="0" rx="6" fill="#2563eb"/>
<text x="353.0" y="302" text-anchor="middle" font-family="ui-sans-serif, system-ui" font-size="12" fill="#111827">0.0%</text>
<text x="353.0" y="328" text-anchor="end" transform="rotate(-35 353.0 328)" font-family="ui-sans-serif, system-ui" font-size="12" fill="#111827">gemini-3-flash</text>
<rect x="418" y="310" width="102" height="0" rx="6" fill="#2563eb"/>
<text x="469.0" y="302" text-anchor="middle" font-family="ui-sans-serif, system-ui" font-size="12" fill="#111827">0.0%</text>
<text x="469.0" y="328" text-anchor="end" transform="rotate(-35 469.0 328)" font-family="ui-sans-serif, system-ui" font-size="12" fill="#111827">grok-4.1-fast</text>
<rect x="534" y="310" width="102" height="0" rx="6" fill="#2563eb"/>
<text x="585.0" y="302" text-anchor="middle" font-family="ui-sans-serif, system-ui" font-size="12" fill="#111827">0.0%</text>
<text x="585.0" y="328" text-anchor="end" transform="rotate(-35 585.0 328)" font-family="ui-sans-serif, system-ui" font-size="12" fill="#111827">deepseek-v3.2</text>
<rect x="650" y="310" width="102" height="0" rx="6" fill="#2563eb"/>
<text x="701.0" y="302" text-anchor="middle" font-family="ui-sans-serif, system-ui" font-size="12" fill="#111827">0.0%</text>
<text x="701.0" y="328" text-anchor="end" transform="rotate(-35 701.0 328)" font-family="ui-sans-serif, system-ui" font-size="12" fill="#111827">qwen3-coder</text>
<rect x="766" y="227" width="102" height="83" rx="6" fill="#2563eb"/>
<text x="817.0" y="219" text-anchor="middle" font-family="ui-sans-serif, system-ui" font-size="12" fill="#111827">1.7%</text>
<text x="817.0" y="328" text-anchor="end" transform="rotate(-35 817.0 328)" font-family="ui-sans-serif, system-ui" font-size="12" fill="#111827">minimax-m2.1</text>
</svg>
